PathFileType  4	(X/Y/Z) C:\Users\antoi\Documents\MyRepositories\mobilecap\ResultsAnalysis
DataRate	CameraRate	NumFrames	NumMarkers	Units	OrigDataRate	OrigDataStartFrame	OrigNumFrames
100.0	100.0	5	51	mm	100.0	34	271
Frame#	Time	r_knee			r_shank_antsup			r_ankle			r_calc			r_5meta			r_toe			L_knee			L_shank_antsup			L_ankle			L_calc			L_5meta			L_toe			r_sh2			r_sh3			r_sh4			L_sh2			L_sh3			r_thigh1			r_thigh2			r_thigh3			r_thigh4			r_thigh5			L_thigh1			L_thigh2			L_thigh3			L_thigh4			r.ASIS			r.PSIS			L.ASIS			L.PSIS			C7			R_Shoulder			L_Shoulder			R_Sternum			L_Sternum			R_humerus			R_elbow_med			R_elbow_lat			R_forearm			R_wrist_radius			R_wrist_ulna			L_humerus			L_elbow_med			L_elbow_lat			L_forearm			L_wrist_radius			L_wrist_ulna			R_HJC			L_HJC			R_HJC_reg			L_HJC_reg			
		X1	Y1	Z1	X2	Y2	Z2	X3	Y3	Z3	X4	Y4	Z4	X5	Y5	Z5	X6	Y6	Z6	X7	Y7	Z7	X8	Y8	Z8	X9	Y9	Z9	X10	Y10	Z10	X11	Y11	Z11	X12	Y12	Z12	X13	Y13	Z13	X14	Y14	Z14	X15	Y15	Z15	X16	Y16	Z16	X17	Y17	Z17	X18	Y18	Z18	X19	Y19	Z19	X20	Y20	Z20	X21	Y21	Z21	X22	Y22	Z22	X23	Y23	Z23	X24	Y24	Z24	X25	Y25	Z25	X26	Y26	Z26	X27	Y27	Z27	X28	Y28	Z28	X29	Y29	Z29	X30	Y30	Z30	X31	Y31	Z31	X32	Y32	Z32	X33	Y33	Z33	X34	Y34	Z34	X35	Y35	Z35	X36	Y36	Z36	X37	Y37	Z37	X38	Y38	Z38	X39	Y39	Z39	X40	Y40	Z40	X41	Y41	Z41	X42	Y42	Z42	X43	Y43	Z43	X44	Y44	Z44	X45	Y45	Z45	X46	Y46	Z46	X47	Y47	Z47	X48	Y48	Z48	X49	Y49	Z49	X50	Y50	Z50	X51	Y51	Z51	

34	0.33000000	-1152.06768	780.47670	-427.72960	-1121.66603	718.20850	-426.06340	-1201.86971	393.41925	-423.81535	-1257.44298	362.17403	-464.43380	-1093.90643	350.21723	-396.07066	-1056.75858	369.28719	-450.15971	-1146.72292	774.49538	-707.48666	-1117.19749	688.01083	-695.29767	-1213.40819	399.40565	-701.41189	-1269.37176	359.03246	-656.34216	-1114.54145	352.83548	-737.22170	-1061.76716	368.29064	-685.28835	-1145.45987	608.24612	-411.76726	-1190.38035	738.69190	-400.32474	-1222.78279	624.14345	-391.11224	-1191.52900	716.88727	-741.08066	-1214.60198	593.80078	-743.81640	-1098.94688	1032.43685	-387.06226	-1097.48216	919.13978	-403.65881	-1160.05751	895.95581	-398.93552	-1210.80877	1030.35285	-395.72882	-1207.38652	915.95759	-419.05548	-1090.04075	1051.25363	-763.17218	-1088.36276	914.02028	-734.85537	-1200.99718	1046.49441	-767.83106	-1202.64352	916.85397	-720.93199	-1049.35992	1230.36698	-464.30528	-1254.12976	1276.65535	-545.57226	-1042.52828	1230.10118	-685.57230	-1251.18852	1276.85597	-628.77016	-1091.12477	1709.89030	-574.32053	-1044.07862	1667.74027	-425.87285	-1033.24795	1672.35584	-715.15153	-983.81977	1625.26447	-547.01537	-983.58512	1622.80960	-585.71125	-1062.86496	1557.82886	-357.23896	-1239.80897	1422.16284	-343.04272	-1196.89537	1415.03821	-292.76739	-1169.70281	1324.31790	-280.96344	-1186.60993	1179.94435	-275.31309	-1215.37293	1188.46235	-250.95890	-1056.38225	1577.66158	-794.04742	-1205.82026	1407.62555	-809.42668	-1163.26010	1416.09658	-858.76095	-1134.68393	1312.38103	-875.91685	-1136.71339	1183.80121	-877.29632	-1167.74898	1189.02601	-903.56173	-1139.51021	1150.33293	-474.27080	-1131.33411	1152.15354	-681.60907	-1124.88866	1167.76629	-497.47608	-1119.72764	1168.11759	-643.48987	
35	0.34000000	-1150.35061	780.15990	-427.29681	-1119.90366	717.58976	-425.92484	-1201.92688	393.32290	-423.52402	-1257.50687	362.11921	-464.37715	-1093.94842	350.26528	-396.08478	-1056.87507	369.41745	-450.17138	-1144.41431	774.11955	-707.61839	-1115.23259	687.36327	-695.16093	-1213.37204	399.35490	-701.34760	-1269.39520	358.98327	-656.27152	-1114.54123	352.85212	-737.15094	-1061.78615	368.35561	-685.25377	-1144.02253	607.93525	-411.67842	-1188.31247	738.43145	-399.73005	-1221.27403	624.11688	-390.67022	-1189.30778	716.45537	-740.93173	-1213.31930	593.50211	-743.42465	-1098.32407	1032.09415	-386.71135	-1096.55173	918.89615	-403.18242	-1158.86710	895.56363	-398.49323	-1210.19924	1029.93835	-395.35730	-1206.45222	915.70568	-417.97573	-1089.30845	1051.09044	-762.84452	-1087.02454	913.85633	-734.63249	-1200.27129	1045.70515	-767.75628	-1201.32220	916.06160	-720.88543	-1049.15317	1229.77943	-464.01487	-1253.72168	1277.33481	-545.04407	-1042.40618	1229.63476	-685.07490	-1250.79601	1277.53853	-628.22383	-1087.35555	1709.47919	-573.70109	-1040.23370	1667.04879	-425.50343	-1029.57932	1671.84635	-714.60901	-980.52304	1624.36838	-546.56438	-980.34751	1621.87486	-585.27154	-1060.59952	1557.83677	-356.50792	-1240.09287	1425.37965	-342.11618	-1197.39875	1417.64992	-291.73670	-1171.94250	1326.48250	-279.64051	-1191.54502	1182.36504	-273.59443	-1220.41427	1191.34919	-249.63559	-1054.11956	1577.96759	-793.63509	-1206.11610	1410.72124	-809.35667	-1163.78830	1418.62495	-859.41372	-1137.15935	1314.45795	-877.02360	-1142.11828	1186.28611	-879.03707	-1173.01805	1191.52312	-904.44894	-1139.77453	1150.28038	-473.88116	-1131.68281	1152.19857	-681.22184	-1125.07478	1167.76082	-497.15145	-1119.94397	1168.11754	-643.02817	
36	0.35000000	-1148.66688	779.83537	-426.92178	-1118.10782	717.00204	-425.77380	-1202.00107	393.21563	-423.31326	-1257.55496	362.02432	-464.29505	-1094.01035	350.29108	-396.11210	-1056.95873	369.57405	-450.16419	-1142.19755	773.54110	-707.09958	-1113.29284	686.73601	-695.00169	-1213.32513	399.32371	-701.30415	-1269.39457	358.96877	-656.23138	-1114.54223	352.87346	-737.11105	-1061.78192	368.44344	-685.21561	-1142.71958	607.54144	-411.48492	-1186.37080	738.14540	-399.05141	-1219.91126	624.01701	-390.26791	-1187.35188	716.03324	-740.43148	-1212.26034	593.29565	-742.94919	-1097.58848	1032.03861	-386.66790	-1095.41308	918.60613	-402.78441	-1157.70196	895.18746	-397.94433	-1209.61746	1029.31899	-395.11658	-1205.41360	915.17733	-417.55359	-1088.52604	1050.91686	-762.36722	-1085.60159	913.82965	-734.69582	-1200.24564	1044.64202	-767.22234	-1199.94413	915.20695	-720.81114	-1048.90878	1229.14255	-463.68304	-1253.18770	1277.99952	-544.54047	-1042.15891	1229.07881	-684.55236	-1250.35253	1278.07682	-627.60295	-1083.49388	1708.98151	-573.05916	-1036.27473	1666.34853	-425.08050	-1025.84466	1671.29235	-714.09546	-977.37109	1623.19931	-546.55382	-977.01551	1620.83291	-584.79208	-1058.26695	1557.74011	-355.84613	-1240.23611	1428.68633	-341.29915	-1197.76647	1420.23612	-290.87007	-1174.12675	1328.68014	-278.34085	-1196.42285	1184.91247	-272.07404	-1225.40896	1194.27654	-248.56157	-1051.82890	1578.22404	-793.38990	-1206.47228	1413.77245	-809.51786	-1164.34999	1421.15044	-859.98416	-1139.92989	1316.61891	-877.93909	-1147.51809	1188.96676	-880.82347	-1178.09403	1194.72225	-906.09892	-1139.96183	1150.18991	-473.43041	-1131.93680	1152.14259	-680.77341	-1125.16550	1167.87016	-496.62541	-1120.19042	1168.00541	-642.38212	
37	0.36000000	-1147.01124	779.47251	-426.55256	-1116.29861	716.49165	-425.55409	-1201.97886	393.14802	-423.09354	-1257.58579	361.90198	-464.20178	-1094.06093	350.29270	-396.09347	-1057.01871	369.72386	-450.11989	-1140.03978	772.99464	-706.55514	-1111.39654	686.06024	-694.86397	-1213.30261	399.25909	-701.13356	-1269.37320	359.00825	-656.30205	-1114.54749	352.90920	-737.08134	-1061.78165	368.55259	-685.19179	-1141.54984	607.01241	-411.28592	-1184.63079	737.92007	-398.42042	-1218.42893	623.78199	-389.55341	-1185.49322	715.75622	-740.04892	-1211.01151	593.16334	-742.80230	-1096.83950	1032.10263	-386.63474	-1094.11651	918.48265	-402.44896	-1156.57920	894.75960	-397.56731	-1209.08444	1028.33599	-394.93197	-1204.31275	914.42926	-417.32362	-1087.67445	1050.71822	-761.86316	-1084.02565	913.66341	-734.82416	-1201.02110	1043.46628	-765.95586	-1198.52227	914.47052	-720.83179	-1048.65299	1228.50923	-463.27023	-1252.57440	1278.60485	-544.06730	-1041.86017	1228.44569	-683.99676	-1249.64003	1278.62294	-627.15150	-1079.60094	1708.42516	-572.49207	-1032.22076	1665.62838	-424.61095	-1022.10668	1670.63744	-713.56951	-974.28439	1621.85954	-546.79750	-973.62526	1619.71142	-584.44033	-1055.89041	1557.58820	-355.05850	-1240.28037	1431.99270	-340.58839	-1198.04273	1422.78087	-290.11496	-1176.21181	1330.96506	-277.07425	-1201.22482	1187.61198	-270.64869	-1230.18543	1197.45459	-247.46805	-1049.45668	1578.42347	-793.46626	-1207.34643	1416.89385	-810.54494	-1164.93007	1423.76077	-860.52616	-1142.87927	1318.94924	-878.84431	-1152.57274	1191.39422	-882.41068	-1183.06318	1197.92760	-907.88075	-1140.13324	1150.09783	-472.96851	-1132.04930	1152.02863	-680.30941	-1125.32729	1167.80794	-496.25057	-1120.18284	1167.83936	-641.90771	
38	0.37000000	-1145.40315	779.12650	-426.13954	-1114.58595	716.00255	-425.24666	-1201.92351	393.06775	-422.88649	-1257.63536	361.80925	-464.15522	-1094.09373	350.29105	-396.02088	-1057.11199	369.82558	-450.03658	-1137.91219	772.61306	-706.37218	-1109.54905	685.35425	-694.74387	-1213.34455	399.08377	-700.66321	-1269.36749	359.03733	-656.37459	-1114.55319	352.96233	-737.05526	-1061.81063	368.65281	-685.14886	-1140.50758	606.46518	-411.21728	-1182.90893	737.80791	-397.89489	-1216.93660	623.54484	-388.80773	-1183.56728	715.54408	-739.81498	-1209.41217	593.05931	-743.01832	-1096.10014	1031.93678	-386.30045	-1092.90730	918.50609	-402.01299	-1155.43136	894.31055	-397.27105	-1208.53884	1027.38642	-394.61476	-1203.21754	913.75009	-416.94801	-1086.75353	1050.45945	-761.40147	-1082.46134	913.33981	-734.74491	-1201.26205	1042.56503	-764.75413	-1197.11397	913.79471	-720.86244	-1048.33800	1227.88889	-462.87504	-1251.92852	1279.17937	-543.62350	-1041.56678	1227.83123	-683.43044	-1248.80724	1279.20837	-626.77594	-1075.64750	1707.82164	-571.99470	-1028.06843	1664.79267	-424.13441	-1018.32742	1669.85406	-713.10817	-970.97375	1620.60151	-546.75854	-970.17501	1618.54974	-584.15576	-1053.39844	1557.37795	-354.16841	-1240.22489	1435.26157	-339.96547	-1198.28674	1425.33619	-289.37227	-1178.18839	1333.25260	-275.96222	-1205.86455	1190.42863	-269.30048	-1234.84178	1200.74092	-246.48931	-1047.03909	1578.52182	-793.47222	-1208.33067	1420.08390	-811.62304	-1165.39535	1426.58016	-861.37197	-1145.67085	1321.33233	-879.88683	-1157.59813	1193.65570	-883.79372	-1188.12267	1200.97875	-909.25659	-1140.26406	1150.01267	-472.54001	-1132.09954	1151.93429	-679.87785	-1125.48745	1167.65683	-496.02274	-1120.02377	1167.70759	-641.55503	
